<mxfile host="app.diagrams.net" modified="2024-07-10T07:26:26.887Z" agent="Mozilla/5.0 (Windows NT 10.0; Win64; x64) AppleWebKit/537.36 (KHTML, like Gecko) Chrome/125.0.0.0 Safari/537.36 Edg/125.0.0.0" version="24.6.4" etag="0HOxrsKxzqkXecr29bP3" type="github">
  <diagram name="第 1 页" id="NkmOLFE76or3GGd4m7aT">
    <mxGraphModel>
      <root>
        <mxCell id="0" />
        <mxCell id="1" parent="0" />
      </root>
    </mxGraphModel>
  </diagram>
</mxfile>
